<svg xmlns="http://www.w3.org/2000/svg"
shape-rendering="geometricPrecision"
width="4000" height="4000" viewBox="0 0 596 596">
  <metadata>null</metadata>

<path d="
M 27.288 174.496
C 27.806 173.154 28.967 171.893 30.494 172.13
C 32.013 173.864 32.773 176.033 34.154 177.863
C 36.912 181.515 41.926 185.197 46.519 185.977
C 49.967 186.563 52.739 184.664 56.024 183.981
C 61.455 182.853 66.698 183.512 71.616 186.074
C 77.772 189.282 81.331 195.466 82.592 202.135
C 83.584 207.376 83.034 212.838 87.645 216.572
C 89.991 218.473 92.965 219.395 95.777 220.338
C 99.797 221.685 103.907 222.95 108.019 223.988
C 109.911 224.466 111.764 225.068 113.613 225.677
C 114.114 225.841 115.349 225.942 115.528 226.581
C 115.629 226.94 114.265 227.116 114.097 227.183
C 112.383 227.859 110.678 228.579 109.006 229.354
C 107.119 230.229 105.197 231.078 103.41 232.15
C 101.929 233.038 100.643 234.462 99.01 235.043
C 97.404 232.512 95.374 229.744 93.045 227.84
C 88.519 224.141 82.537 222.998 76.868 222.505
C 73.517 222.213 70.063 223.184 66.726 223.37
C 61.42 223.664 56.17 222.568 51.641 219.695
C 45.72 215.939 42.033 209.678 41.702 202.644
C 41.56 199.633 43.386 194.418 41.584 191.873
C 40.356 190.138 38.382 189.018 36.718 187.76
C 34.318 185.946 31.912 184.011 29.905 181.761
C 28.076 179.71 26.721 177.318 27.288 174.496 Z
M 47.446 201.112
C 46.852 208.967 52.534 215.736 60.065 217.439
C 67.861 219.201 76.306 213.935 76.914 205.698
C 77.395 199.176 73.716 192.615 67.579 190.076
C 59.09 186.564 48.194 191.219 47.446 201.112 Z"
opacity="1" fill="rgb(6,6,6)" fill-rule="evenodd" />
<path d="
M 146.239 235.942
C 146.6 236.19 145.814 237.232 145.508 237.471
C 144.552 238.219 142.703 237.982 141.868 237.157
C 141.426 236.722 140.75 235.749 141.355 235.233
C 151.434 230.419 160.936 224.058 170.524 218.353
C 183.674 210.529 197.146 203.196 210.203 195.221
C 217.85 190.55 225.546 185.83 233.389 181.495
C 235.958 180.075 238.793 178.536 241.181 176.842
C 242.176 176.136 243.19 175.646 244.247 175.059
C 244.329 175.013 244.907 174.494 244.786 174.416
C 244.531 174.254 244.166 174.907 243.94 174.906
C 243.559 174.905 243.555 174.417 243.102 174.551
C 240.775 175.241 238.449 176.589 236.231 177.581
C 228.178 181.185 220.066 184.924 211.899 188.274
C 202.3 192.241 192.605 196.393 183.328 201.077
C 178.597 202.92 173.156 204.977 168.845 207.67
C 164.495 209.247 160.418 211.599 156.226 213.547
C 149.024 216.895 141.727 220.049 134.586 223.545
C 131.957 224.832 129.185 225.846 126.479 226.959
C 125.696 227.281 123.857 228.033 123.674 228.848
C 127.038 231.589 130.243 234.671 129.756 239.417
C 129.311 240.582 128.535 241.428 127.881 242.46
C 127.216 242.839 126.517 243.167 125.834 243.514
C 124.36 244.85 120.094 243.188 118.593 242.363
C 115.979 239.995 114.777 237.392 116.188 233.885
C 116.473 233.175 117.429 232.765 117.475 231.996
C 115.296 231.627 111.617 233.59 109.913 234.855
C 105.624 238.039 102.46 242.957 99.344 247.228
C 98.138 248.883 96.392 250.197 95.267 251.868
C 94.149 253.529 97.318 254.252 95.899 255.271
C 88.667 258.25 79.346 263.025 75.907 270.432
C 72.818 277.086 73.8 284.707 69.116 290.717
C 66.819 293.663 63.548 296.117 60.128 297.635
C 58.737 298.253 57.043 298.173 55.735 298.891
C 57.338 299.788 60.321 298.662 61.959 298.088
C 67.076 296.294 71.391 292.543 73.637 287.57
C 76.171 281.958 75.53 275.316 78.928 270.014
C 81.626 265.805 85.894 263.325 90.259 261.129
C 97.037 257.718 103.915 254.544 110.806 251.368
C 114.196 249.806 117.844 248.472 121.07 246.588
C 122.919 245.508 125.055 243.826 127.296 244.275
C 127.257 245.392 127.67 246.332 128.423 247.188
C 127.583 247.354 126.791 247.725 126.065 248.165
C 126.132 249.004 128.289 248.769 129.068 248.965
C 132.227 249.76 135.349 250.613 138.574 251.167
C 151.996 253.471 165.069 257.725 178.548 259.755
C 184.302 260.775 189.964 262.243 195.644 263.6
C 206.613 266.221 217.712 268.41 228.737 270.76
C 235.37 272.173 242.055 273.614 248.69 274.909
C 251.299 275.418 254.545 275.47 256.951 276.616
C 256.965 277.352 257.209 277.878 257.483 278.547
C 247.43 277.372 237.491 274.787 227.527 273.008
C 224.085 272.393 219.964 270.682 216.487 270.79
C 214.297 270.858 212.244 272.841 210.294 273.701
C 205.454 275.835 200.641 278.049 195.78 280.14
C 183.885 285.257 170.32 287.479 157.502 285.463
C 153.136 284.777 149.039 283.248 145.066 281.361
C 143.38 280.561 141.527 279.679 140.593 278.013
C 142.462 278.59 144.077 279.58 145.877 280.318
C 148.533 281.406 151.522 282.038 154.341 282.519
C 166.28 284.558 178.421 280.993 189.385 276.532
C 193.517 274.85 197.546 272.855 201.511 270.817
C 202.239 270.443 205.542 269.06 205.065 268.388
C 203.102 267.709 199.526 266.623 197.468 266.921
C 195.42 267.218 193.272 269.168 191.389 270.023
C 186.726 272.139 181.885 274.167 176.937 275.529
C 166.275 278.465 154.661 279.298 144.181 275.136
C 138.754 272.981 133.895 269.744 129.426 266.02
C 125.69 262.906 121.36 258.846 119.285 254.403
C 122.159 256.409 124.883 258.556 128.084 260.062
C 135.716 263.651 144.012 264.975 152.389 264.461
C 156.317 264.221 160.197 263.526 163.976 262.423
C 165.555 261.962 167.775 261.717 169.215 261.05
C 169.64 260.853 169.211 260.561 169.031 260.445
C 166.416 260.134 163.665 258.835 161.028 259.027
C 158.935 259.179 156.979 260.25 154.917 260.621
C 150.034 261.499 145.033 261.605 140.132 260.838
C 131.775 259.529 125.589 254.983 118.54 250.783
C 117.212 250.812 115.942 251.57 114.776 252.148
C 112.492 253.281 110.207 254.424 107.895 255.497
C 102.021 258.223 96.012 260.637 90.255 263.619
C 86.13 265.756 82.536 267.868 80.241 272.081
C 75.807 280.22 77.628 291.079 68.933 296.866
C 59.616 303.065 44.024 303.853 37.824 292.844
C 37.005 291.389 36.438 289.707 36.103 288.074
C 35.481 285.041 35.66 281.788 36.282 278.774
C 36.805 276.24 37.682 273.809 38.955 271.551
C 42.715 264.883 50.295 260.579 57.965 260.638
C 62.111 260.67 66.118 261.957 70.288 261.741
C 74.762 261.508 79.184 259.869 83.092 257.733
C 88.088 255.002 92.244 251.695 95.537 247.013
C 99.007 242.081 101.735 235.51 107.012 232.303
C 111.129 229.801 115.82 227.898 120.232 225.988
C 125.628 223.651 130.914 220.996 136.289 218.595
C 159.106 208.398 182.358 199.125 205.117 188.842
C 213.271 185.158 221.542 181.684 229.848 178.352
C 234.126 176.635 238.771 175.257 242.903 173.261
C 246.285 171.628 250.203 169.923 253.879 169.109
C 254.919 168.879 256.458 167.893 257.489 168.392
C 257.184 169.27 256.251 169.543 255.444 169.89
C 253.838 170.579 252.345 171.618 250.852 172.519
C 244.499 176.352 238.271 180.38 231.881 184.149
C 221.057 190.534 210.5 197.383 199.703 203.806
C 189.262 210.016 178.636 215.983 168.384 222.514
C 163.115 225.87 157.75 229.151 152.264 232.141
C 150.623 233.035 149.049 233.874 147.529 234.962
C 147.066 235.294 146.487 235.399 146.239 235.942 Z
M 41.446 280.103
C 41.25 281.99 41.476 283.828 41.986 285.655
C 42.436 287.268 43.188 288.789 44.213 290.114
C 52.317 300.59 69.293 292.856 70.388 280.916
C 71.287 271.115 62.039 264.565 52.951 266.773
C 46.921 268.238 42.085 273.955 41.446 280.103 Z
M 117.494 236.613
C 117.444 237.388 117.552 238.15 117.821 238.877
C 118.453 239.826 118.983 239.527 119.12 238.375
C 120.244 236.95 121.753 235.922 122.853 234.44
C 123.386 233.72 123.957 233.125 123.326 232.324
C 122.743 231.973 122.148 231.573 121.476 231.428
C 118.862 231.678 117.984 234.514 117.494 236.613 Z
M 119.013 239.501
C 118.529 240.7 119.517 241.069 120.503 241.622
C 121.92 242.417 124.872 243.015 126.179 241.677
C 127.402 240.423 128.012 237.887 127.666 236.183
C 127.286 234.309 125.749 232.823 124.786 235.099
C 123.34 237.982 122.249 239.174 119.013 239.501 Z"
opacity="1" fill="rgb(8,9,8)" fill-rule="evenodd" />
<path d="
M 118.593 242.363
C 117.864 242.426 117.328 243.477 116.834 243.992
C 115.853 245.014 114.554 245.803 113.321 246.482
C 107.698 249.578 101.792 252.725 95.899 255.271
C 97.318 254.252 94.149 253.529 95.267 251.868
C 96.392 250.197 98.138 248.883 99.344 247.228
C 102.46 242.957 105.624 238.039 109.913 234.855
C 111.617 233.59 115.296 231.627 117.475 231.996
C 117.429 232.765 116.473 233.175 116.188 233.885
C 114.777 237.392 115.979 239.995 118.593 242.363 Z"
opacity="1" fill="rgb(92,89,88)" fill-rule="evenodd" />
<path d="
M 134.75 369.983
C 134.785 369.616 132.224 370.05 131.671 370.145
C 128.775 370.643 125.428 370.574 122.741 371.821
C 123.436 367.961 122.841 363.43 122.861 359.498
C 122.903 351.166 122.881 342.833 122.882 334.501
C 122.883 330.572 122.473 326.392 122.892 322.498
C 116.144 322.711 109.152 321.688 102.431 322.453
C 101.838 319.216 102.309 315.574 102.223 312.283
C 110.963 312.662 119.758 312.399 128.508 312.433
C 137.422 312.468 146.395 312.793 155.303 312.546
C 155.505 315.828 155.106 319.156 155.356 322.436
C 150.337 322.888 145.055 322.411 140.009 322.432
C 138.956 322.437 135.398 321.816 134.752 322.683
C 134.667 333.451 134.611 344.228 134.643 354.997
C 134.652 358.162 134.671 361.326 134.653 364.491
C 134.643 366.286 134.361 368.223 134.75 369.983 Z"
opacity="1" fill="rgb(31,31,31)" fill-rule="evenodd" />
<path d="
M 102.768 412.869
C 105.946 412.381 109.272 412.66 112.48 412.583
C 118.982 412.425 125.479 412.241 131.984 412.154
C 152.825 411.874 173.669 411.984 194.511 411.913
C 200.01 411.894 205.509 411.878 211.008 411.842
C 214.021 411.823 217.233 412.069 220.213 411.642
C 220.307 412.78 220.063 414.092 220.263 415.186
C 212.911 415.427 205.386 414.959 198.009 414.924
C 180.845 414.841 163.681 414.785 146.517 414.663
C 136.672 414.593 126.828 414.442 116.986 414.191
C 112.438 414.075 107.182 414.543 102.736 413.671
C 102.746 413.404 102.757 413.136 102.768 412.869 Z"
opacity="1" fill="rgb(112,112,112)" fill-rule="evenodd" />
<path d="
M 122.741 371.821
C 125.428 370.574 128.775 370.643 131.671 370.145
C 132.224 370.05 134.785 369.616 134.75 369.983
C 135.087 373.197 134.247 376.646 134.81 379.828
C 132.056 379.592 129.257 379.687 126.495 379.696
C 125.41 379.699 123.691 380.115 122.727 379.656
C 122.766 377.064 122.501 374.398 122.741 371.821 Z"
opacity="1" fill="rgb(6,6,6)" fill-rule="evenodd" />
<path d="
M 168.845 207.67
C 169.314 209.41 170.85 210.829 169.885 212.646
C 167.916 215.646 163.032 216.767 159.991 218.375
C 153.977 221.556 148.434 225.498 142.453 228.718
C 139.622 230.243 135.169 231.483 133.173 234.108
C 132.168 235.803 131.464 238.276 129.756 239.417
C 130.243 234.671 127.038 231.589 123.674 228.848
C 123.857 228.033 125.696 227.281 126.479 226.959
C 129.185 225.846 131.957 224.832 134.586 223.545
C 141.727 220.049 149.024 216.895 156.226 213.547
C 160.418 211.599 164.495 209.247 168.845 207.67 Z"
opacity="1" fill="rgb(151,150,149)" fill-rule="evenodd" />
<path d="
M 127.296 244.275
C 127.675 243.917 127.655 243.634 127.846 243.16
C 129.205 242.626 130.253 241.651 131.502 240.913
C 134.762 238.987 138.045 237.071 141.355 235.233
C 140.75 235.749 141.426 236.722 141.868 237.157
C 142.703 237.982 144.552 238.219 145.508 237.471
C 145.814 237.232 146.6 236.19 146.239 235.942
C 149.296 236.406 152.235 237.616 155.161 238.608
C 159.64 240.126 164.204 241.472 168.718 242.869
C 171.487 243.727 174.208 244.652 176.942 245.618
C 178.026 246.002 179.478 246.254 180.405 246.931
C 180.3 247.634 178.987 248.44 178.49 248.98
C 177.209 250.759 175.072 253.579 173.025 254.467
C 169.375 254.778 165.492 253.821 161.923 253.168
C 154.766 251.857 147.702 250.16 140.556 248.793
C 136.826 248.079 132.215 246.349 128.423 247.188
C 127.67 246.332 127.257 245.392 127.296 244.275 Z"
opacity="1" fill="rgb(113,114,113)" fill-rule="evenodd" />
<path d="
M 304.467 179.448
C 303.124 183.517 304.051 187.867 304.812 192.13
C 303.538 191.241 303.517 192.871 302.76 192.781
C 302.446 192.744 301.615 191.744 301.309 191.98
C 301.227 192.193 301.144 192.406 301.06 192.626
C 300.772 192.848 300.466 192.165 300.252 192.104
C 300.144 192.074 297.922 193.137 297.455 193.201
C 290.083 194.213 282.882 195.216 275.685 197.171
C 253.573 203.176 233.493 214.765 214.392 227.154
C 207.361 231.715 200.39 236.383 193.104 240.531
C 190.971 241.746 188.771 242.86 186.553 243.908
C 185.635 244.342 184.783 244.966 183.745 245.036
C 181.933 244.628 180.181 243.596 178.396 243.018
C 172.669 241.164 166.975 239.218 161.24 237.394
C 159.45 236.824 157.563 236.481 155.821 235.766
C 155.2 235.511 154.226 235.268 154.154 234.628
C 190.998 217.164 224.902 192.263 264.989 182.398
C 273.816 180.225 283.159 178.884 292.253 178.74
C 296.338 178.676 300.398 179.518 304.467 179.448 Z"
opacity="1" fill="rgb(55,55,55)" fill-rule="evenodd" />
<path d="
M 166.914 366.492
C 169.559 366.212 172.24 365.973 174.855 365.475
C 175.917 365.273 176.963 365.076 178.035 364.939
C 178.285 364.907 179.178 364.532 179.167 364.91
C 177.197 369.847 175.136 374.753 173.142 379.682
C 172.463 380.084 170.8 379.734 169.998 379.727
C 167.408 379.707 163.998 380.304 161.523 379.606
C 162.772 376.445 163.991 373.29 165.071 370.061
C 165.421 369.015 165.801 366.859 166.914 366.492 Z"
opacity="1" fill="rgb(6,6,6)" fill-rule="evenodd" />
<path d="
M 218.632 359.295
C 215.626 359.829 212.569 360.155 209.575 360.734
C 208.865 360.871 206.718 360.921 207.149 361.778
C 200.698 359.504 193.243 361.956 186.484 362.224
C 184.804 362.291 183.133 362.44 181.456 362.533
C 180.93 362.562 179.988 362.468 179.53 362.767
C 179.065 363.072 179.331 364.358 179.167 364.91
C 179.178 364.532 178.285 364.907 178.035 364.939
C 176.963 365.076 175.917 365.273 174.855 365.475
C 172.24 365.973 169.559 366.212 166.914 366.492
C 167.773 362.576 169.767 358.879 171.237 355.167
C 174.452 347.048 177.762 338.949 180.885 330.795
C 182.353 326.964 184.012 323.212 185.459 319.372
C 186.278 317.201 186.967 314.121 188.418 312.323
C 192.104 312.331 195.95 312.797 199.611 312.244
C 201.284 315.68 202.519 319.4 203.969 322.941
C 207.032 330.419 210.312 337.822 213.306 345.33
C 214.54 348.425 215.886 351.509 217.016 354.64
C 217.551 356.121 217.688 358.007 218.632 359.295 Z
M 183.889 352.569
C 183.806 352.807 183.723 353.046 183.64 353.284
C 190.664 352.855 197.715 353.06 204.737 353.202
C 203.379 351.227 202.648 348.544 201.77 346.32
C 200.096 342.078 198.431 337.784 196.949 333.471
C 196.242 331.412 195.509 329.358 194.99 327.24
C 194.798 326.456 194.511 325.71 194.25 324.948
C 194.141 324.633 194.214 323.851 193.917 324.004
C 193.531 324.203 193.72 324.85 193.622 325.272
C 191.124 334.561 187.215 343.557 183.889 352.569 Z"
opacity="1" fill="rgb(99,99,98)" fill-rule="evenodd" />
<path d="
M 257.483 278.547
C 257.209 277.878 256.965 277.352 256.951 276.616
C 258.355 276.61 257.296 275.636 256.553 275.469
C 254.288 274.96 251.987 274.531 249.717 274.065
C 244.195 272.932 238.518 271.528 233.164 269.724
C 227.489 267.813 221.478 266.876 215.693 265.346
C 204.685 262.434 193.269 259.633 182.028 257.825
C 180.921 256.498 182.051 255.247 182.237 253.788
C 182.361 252.821 181.193 252.198 181.852 251.266
C 182.68 250.095 184.768 250.189 186.035 250.102
C 190.765 249.777 194.54 251.424 199.024 252.643
C 202.267 253.525 205.406 254.909 208.588 255.994
C 214.777 258.105 221.004 260.045 227.173 262.217
C 238.24 266.112 249.429 269.723 260.375 273.963
C 265.947 276.121 271.582 278.106 277.15 280.27
C 278.223 280.687 282.244 281.645 282.477 282.923
C 280.827 283.251 278.355 282.307 276.688 282.011
C 272.429 281.256 268.16 280.559 263.898 279.826
C 262.091 279.516 258.972 279.623 257.483 278.547 Z"
opacity="1" fill="rgb(105,104,103)" fill-rule="evenodd" />
<path d="
M 183.328 201.077
C 192.605 196.393 202.3 192.241 211.899 188.274
C 211.492 189.004 211.619 189.963 210.998 190.572
C 210.021 191.531 208.556 192.093 207.449 192.897
C 202.947 196.167 198.022 198.628 193.141 201.278
C 190.407 202.762 187.71 204.505 184.771 205.573
C 184.329 205.734 181.822 206.26 182.146 205.399
C 182.741 203.814 183.536 202.846 183.328 201.077 Z"
opacity="1" fill="rgb(207,208,208)" fill-rule="evenodd" />
<path d="
M 191.714 246.592
C 194.257 244.076 198.063 242.639 201.107 240.795
C 207.663 236.825 214.206 232.822 220.702 228.755
C 234.736 219.967 249.18 212.008 264.761 206.298
C 290.172 196.984 319.193 195.845 344.218 206.897
C 355.187 211.741 365.203 218.659 374.279 226.451
C 381.139 232.339 388.332 239.259 396.603 243.134
C 404.639 246.9 412.014 248.82 420.86 249.444
C 420.877 249.58 419.572 249.546 419.46 249.547
C 418.218 249.56 416.978 249.614 415.736 249.638
C 410.197 249.743 404.368 248.142 399.246 246.119
C 389.437 242.243 381.445 235.561 372.989 229.47
C 362.992 222.269 352.362 215.034 340.484 211.284
C 333.278 209.009 325.861 207.229 318.327 206.525
C 284.45 203.36 251.539 216.995 222.777 233.603
C 215.905 237.57 208.726 241.009 201.953 245.143
C 200.616 245.959 199.665 247.178 198.414 248.004
C 196.669 248.409 193.256 247.462 191.714 246.592 Z"
opacity="1" fill="rgb(13,12,12)" fill-rule="evenodd" />
<path d="
M 317.667 227.92
C 317.074 228.893 317.382 230.337 317.332 231.436
C 317.226 233.786 316.898 236.126 316.712 238.47
C 316.707 239.694 313.882 238.456 313.054 238.274
C 308.879 237.358 304.78 236.287 300.548 235.641
C 289.778 233.998 278.722 234.663 268.063 236.744
C 256.464 239.008 245.427 243.904 234.769 248.837
C 231.122 250.526 227.508 252.333 223.938 254.178
C 222.678 254.829 221.041 256.259 219.56 256.187
C 217.674 256.096 215.653 254.728 213.891 254.113
C 210.267 252.849 206.584 251.883 203.029 250.425
C 202.143 250.061 200.129 249.837 199.777 248.913
C 203.556 247.995 206.886 245.887 210.331 244.133
C 216.835 240.823 223.241 237.186 229.932 234.263
C 248.464 226.166 268.156 219.81 288.611 219.783
C 296.111 219.773 304.237 220.925 311.38 223.229
C 313.803 224.011 318.147 224.701 317.667 227.92 Z"
opacity="1" fill="rgb(64,64,64)" fill-rule="evenodd" />
<path d="
M 218.632 359.295
C 221.332 363.334 222.816 368.852 224.639 373.352
C 225.427 375.299 227.029 377.766 227.38 379.773
C 223.423 379.72 219.213 379.195 215.279 379.695
C 213.041 375.873 211.547 371.267 209.853 367.172
C 209.167 365.512 208.602 362.911 207.149 361.778
C 206.718 360.921 208.865 360.871 209.575 360.734
C 212.569 360.155 215.626 359.829 218.632 359.295 Z"
opacity="1" fill="rgb(7,6,6)" fill-rule="evenodd" />
<path d="
M 228.531 257.949
C 249.053 246.479 273.615 237.437 297.482 240.568
C 307.39 241.868 316.688 245.166 325.436 249.919
C 330.851 252.861 335.869 256.858 340.299 261.12
C 346.603 267.186 351.611 274.479 355.939 282.038
C 358.256 286.085 360.338 290.319 362.817 294.266
C 363.931 296.041 365.668 298.066 366.344 300.038
C 365.718 299.732 365.212 298.781 364.779 298.243
C 363.451 296.591 362.204 294.868 361.025 293.111
C 357.424 287.74 353.814 282.279 349.776 277.216
C 339.018 263.726 324.029 253.201 306.98 249.542
C 289.244 245.736 271.621 248.54 254.545 253.896
C 250.304 255.227 246.016 256.984 241.956 258.794
C 240.113 259.616 237.993 261.511 235.972 261.742
C 233.826 261.989 229.812 259.829 228.196 258.539
C 228.307 258.343 228.419 258.146 228.531 257.949 Z"
opacity="1" fill="rgb(12,12,11)" fill-rule="evenodd" />
<path d="
M 238.194 423.994
C 238.88 423.376 239.497 422.632 240.133 421.955
C 241.324 421.622 243.049 423.354 244.116 423.908
C 247.548 425.689 253.835 426.443 255.834 422.207
C 257.318 419.06 255.075 416.509 252.149 415.626
C 246.794 414.008 239.207 413.374 239.287 406.105
C 239.403 395.502 253.314 396.674 259.28 401.295
C 259.13 401.793 257.765 404.39 257.221 404.276
C 254.655 401.887 250.512 400.55 247.054 401.372
C 244.87 401.892 242.871 403.587 242.973 406.003
C 243.126 409.61 246.585 410.281 249.401 411.053
C 254.584 412.474 260.733 414.409 260.216 420.974
C 259.599 428.806 249.581 429.503 243.888 427.607
C 242.096 427.01 238.93 425.851 238.194 423.994 Z"
opacity="1" fill="rgb(6,5,5)" fill-rule="evenodd" />
<path d="
M 284.006 350.998
C 282.983 350.221 281.57 350.814 280.407 350.981
C 277.308 351.424 274.223 352.052 271.114 352.385
C 270.217 349.737 267.608 347.411 265.812 345.338
C 262.809 341.872 260.039 338.194 257.137 334.644
C 256.507 333.894 254.601 330.797 253.996 331.446
C 254.897 336.739 254.578 342.501 254.641 347.87
C 254.664 349.911 254.107 352.601 254.807 354.509
C 254.645 354.347 252.828 354.701 252.485 354.755
C 249.991 355.15 247.464 355.687 244.955 355.941
C 244.108 355.699 244.296 354.042 244.257 353.281
C 244.124 350.683 244.235 348.065 244.252 345.464
C 244.301 338.144 244.256 330.825 244.247 323.505
C 244.242 319.846 243.931 316.004 244.318 312.368
C 246.784 312.44 250.085 311.794 252.439 312.517
C 263.55 324.765 273.965 337.894 284.006 350.998 Z"
opacity="1" fill="rgb(100,100,99)" fill-rule="evenodd" />
<path d="
M 244.955 355.941
C 247.464 355.687 249.991 355.15 252.485 354.755
C 252.828 354.701 254.645 354.347 254.807 354.509
C 255.882 362.712 254.601 371.44 254.858 379.714
C 251.334 379.918 247.773 379.42 244.238 379.71
C 243.626 378.309 244.122 376.04 244.122 374.504
C 244.119 370.172 244.14 365.839 244.149 361.507
C 244.153 359.965 243.466 356.566 244.955 355.941 Z"
opacity="1" fill="rgb(5,6,6)" fill-rule="evenodd" />
<path d="
M 249.762 260.559
C 251.273 259.403 253.12 258.92 254.862 258.22
C 258.48 256.767 262.255 255.718 266.062 254.89
C 283.797 251.032 302.045 251.786 317.663 261.915
C 323.282 265.559 328.07 270.561 331.267 276.462
C 332.12 278.035 333.879 280.827 333.715 282.674
C 333.053 282.685 332.294 280.273 332.038 279.768
C 330.703 277.138 328.941 274.709 326.893 272.589
C 320.422 265.892 312.065 261.153 303.088 258.713
C 291.071 255.447 278.754 255.104 266.443 256.852
C 262.28 257.443 258.414 258.635 254.356 259.61
C 252.946 259.949 251.195 261.109 249.762 260.559 Z"
opacity="1" fill="rgb(23,20,18)" fill-rule="evenodd" />
<path d="
M 266.407 217.994
C 268.34 217.04 270.361 216.798 272.342 216.058
C 279.008 213.566 286.41 212.558 293.475 212.092
C 312.689 210.826 330.907 214.328 347.549 224.308
C 352.986 227.568 357.77 231.512 362.549 235.634
C 363.86 236.766 365.117 237.966 366.283 239.247
C 366.637 239.636 367.38 240.286 367.442 240.805
C 365.483 239.579 363.702 237.729 361.909 236.259
C 359.26 234.087 356.361 232.171 353.416 230.416
C 338.921 221.778 323.15 216.73 306.377 215.079
C 297.046 214.161 287.504 214.633 278.248 215.98
C 275.329 216.405 272.427 216.914 269.553 217.562
C 268.607 217.775 267.339 218.443 266.407 217.994 Z"
opacity="0.996" fill="rgb(25,22,20)" fill-rule="evenodd" />
<path d="
M 271.114 352.385
C 274.223 352.052 277.308 351.424 280.407 350.981
C 281.57 350.814 282.983 350.221 284.006 350.998
C 285.709 353.268 287.638 355.373 289.334 357.655
C 290.067 358.642 290.571 360.062 291.505 360.86
C 291.891 360.467 291.209 358.556 291.196 358
C 291.139 355.484 290.952 352.782 291.297 350.289
C 294.549 349.776 297.764 349.225 301.054 349.105
C 301.83 349.214 301.689 350.131 301.69 350.853
C 301.695 352.735 301.67 354.617 301.672 356.499
C 301.676 361.665 301.6 366.831 301.623 371.997
C 301.634 374.538 301.415 377.277 301.785 379.791
C 298.916 379.58 295.995 379.704 293.131 379.846
C 292.324 379.265 291.716 378.006 291.105 377.206
C 289.38 374.947 287.523 372.785 285.765 370.553
C 280.972 364.468 275.698 358.596 271.114 352.385 Z"
opacity="1" fill="rgb(6,6,6)" fill-rule="evenodd" />
<path d="
M 274.758 428.237
C 278.478 421.276 281.381 413.784 284.647 406.598
C 285.883 403.877 286.826 400.893 288.349 398.321
C 289.568 397.814 290.911 398.044 292.197 398.136
C 296.347 405.237 298.98 413.489 302.557 420.912
C 303.429 422.721 304.146 424.613 305.077 426.394
C 305.249 426.724 306.1 427.923 305.937 428.178
C 304.954 428.273 302.13 428.748 301.421 428.087
C 300.864 425.483 299.645 422.866 298.367 420.547
C 297.435 419.869 295.156 420.31 294.011 420.325
C 290.179 420.375 286.307 420.176 282.484 420.346
C 280.973 422.678 280.57 425.885 278.84 428.028
C 277.773 428.378 275.844 428.527 274.758 428.237 Z
M 283.815 416.672
C 283.795 416.807 283.776 416.941 283.756 417.075
C 288.087 417.003 292.58 417.308 296.878 417.017
C 294.415 412.228 292.508 407.055 290.279 402.148
C 288.494 407.013 286.23 412.086 283.815 416.672 Z"
opacity="1" fill="rgb(6,6,5)" fill-rule="evenodd" />
<path d="
M 301.054 349.105
C 297.764 349.225 294.549 349.776 291.297 350.289
C 291.514 349.302 291.039 348.013 291.009 346.99
C 290.94 344.656 291.087 342.291 291.09 339.953
C 291.104 330.761 290.634 321.564 290.811 312.367
C 294.347 312.497 297.922 312.467 301.458 312.32
C 301.239 316.374 301.428 320.453 301.563 324.498
C 301.74 329.809 301.385 335.138 301.452 340.442
C 301.481 342.672 301.799 345.021 301.477 347.236
C 301.366 347.998 301.991 348.875 301.054 349.105 Z"
opacity="1" fill="rgb(122,123,123)" fill-rule="evenodd" />
<path d="
M 304.467 179.448
C 306.672 179.226 308.911 179.734 311.088 180.029
C 317.418 180.888 323.653 182.5 329.677 184.597
C 342.178 188.949 354.069 194.964 364.839 202.68
C 377.678 211.879 389.506 222.965 403.16 230.969
C 413.143 236.82 429.155 242.903 438.708 232.845
C 439.89 231.6 440.618 230.186 441.31 228.633
C 441.674 227.842 442.03 227.046 442.375 226.247
C 442.971 226.389 441.655 230.149 441.455 230.688
C 440.056 234.456 436.634 237.403 433.022 238.998
C 423.552 243.182 412.88 240.171 403.876 236.219
C 392.428 231.195 382.211 223.299 371.991 216.209
C 360.906 208.519 349.049 201.984 336.285 197.55
C 328.961 195.005 321.198 193.679 313.476 193.159
C 311.402 193.019 309.331 192.858 307.254 192.758
C 306.523 192.722 305.278 192.749 304.812 192.13
C 304.051 187.867 303.124 183.517 304.467 179.448 Z"
opacity="1" fill="rgb(80,80,80)" fill-rule="evenodd" />
<path d="
M 317.667 227.92
C 317.808 229.46 318.967 228.858 319.622 228.944
C 320.349 229.038 320.274 230.266 321.172 229.764
C 321.847 229.387 321.776 228.03 321.968 227.361
C 324.353 227.364 327.204 229.444 329.182 230.63
C 334.795 233.992 339.694 238.134 344.711 242.288
C 348.791 245.667 352.428 249.604 356.138 253.375
C 358.701 255.98 361.174 258.67 363.744 261.267
C 377.502 275.168 397.078 291.576 417.996 283.126
C 421.28 281.8 424.421 280.102 427.035 277.675
C 431.267 273.746 432.964 269.294 435.539 264.326
C 435.506 268.281 433.096 272.783 430.986 276.01
C 423.822 286.964 410.877 291.677 398.144 289.822
C 373.241 286.195 358.432 265.742 339.375 251.769
C 333.31 247.322 326.444 244.158 320.586 239.566
C 319.209 238.487 317.743 239.881 316.712 238.47
C 316.898 236.126 317.226 233.786 317.332 231.436
C 317.382 230.337 317.074 228.893 317.667 227.92 Z"
opacity="1" fill="rgb(111,111,110)" fill-rule="evenodd" />
<path d="
M 322.471 346.924
C 326.28 346.5 330.09 346.077 333.915 345.818
C 333.936 349.028 334.492 352.588 335.632 355.594
C 339.901 366.842 351.369 372.401 362.962 370.719
C 365.332 370.375 368.876 370.001 370.938 368.735
C 371.091 363.858 370.541 358.917 370.902 354.047
C 367.261 353.869 363.599 354.084 359.956 353.983
C 359.852 350.745 360.071 347.476 359.834 344.242
C 367.11 344.101 374.535 344.77 381.792 344.016
C 382.058 349.307 381.779 354.694 381.788 359.999
C 381.796 364.633 382.122 369.378 381.841 373.994
C 381.349 374.876 379.594 375.438 378.723 375.913
C 375.518 377.659 372.029 379.022 368.46 379.799
C 353.73 383.006 336.739 379.611 327.824 366.463
C 324.894 362.142 322.987 357.216 322.302 352.036
C 322.164 350.99 321.179 347.04 322.471 346.924 Z"
opacity="1" fill="rgb(7,7,7)" fill-rule="evenodd" />
<path d="
M 333.915 345.818
C 330.09 346.077 326.28 346.5 322.471 346.924
C 321.757 346.056 322.162 343.407 322.235 342.311
C 322.549 337.587 323.911 332.801 326.177 328.639
C 334.254 313.806 351.826 308.681 367.696 312.381
C 371.667 313.306 375.519 314.874 378.892 317.194
C 379.763 317.793 381.736 318.817 382.039 319.839
C 380.303 322.482 378.096 324.799 376.368 327.459
C 374.986 327.219 373.411 325.861 372.153 325.217
C 369.989 324.109 367.672 323.365 365.363 322.632
C 355.759 319.583 343.706 322.479 338.08 331.188
C 336.064 334.309 335.109 337.667 334.34 341.265
C 334.118 342.306 333.913 343.406 333.86 344.471
C 333.852 344.632 334.005 345.732 333.915 345.818 Z"
opacity="1" fill="rgb(104,104,103)" fill-rule="evenodd" />
<path d="
M 322.384 398.257
C 323.674 398.199 324.964 398.208 326.255 398.248
C 326.166 407.115 326.999 416.268 326.244 425.096
C 331.38 424.853 336.923 424.407 342.044 424.855
C 342.168 425.974 342.179 427.226 342.169 428.345
C 340.239 428.616 337.973 428.207 336.008 428.194
C 331.509 428.163 327.01 428.251 322.512 428.262
C 322.631 418.393 323.327 408.092 322.384 398.257 Z"
opacity="1" fill="rgb(10,10,8)" fill-rule="evenodd" />
<path d="
M 348.221 237.794
C 350.237 238.562 351.92 240.404 353.569 241.77
C 356.794 244.439 359.917 247.22 363.129 249.91
C 374.041 259.048 385.713 268.338 399.773 271.881
C 407.086 273.724 415.575 273.75 421.671 268.667
C 424.804 266.055 425.265 263.054 427.108 259.72
C 427.596 261.319 426.372 263.931 425.81 265.417
C 422.059 273.911 412.066 276.525 403.587 275.933
C 386.096 274.712 372.387 261.576 360.615 249.891
C 357.828 247.125 354.949 244.487 352.078 241.814
C 350.838 240.659 348.847 239.417 348.221 237.794 Z"
opacity="1" fill="rgb(22,21,19)" fill-rule="evenodd" />
<path d="
M 356.482 411.1
C 357.442 403.457 363.794 397.794 371.424 397.569
C 379.774 397.323 388.919 404.783 387.571 413.847
C 386.954 417.999 385.761 421.97 382.401 424.788
C 371.623 433.826 354.699 425.287 356.482 411.1 Z
M 360.412 411.083
C 360.128 412.901 360.243 414.797 360.715 416.573
C 361.129 418.135 361.794 419.642 362.805 420.913
C 369.102 428.823 381.8 425.079 383.524 415.386
C 385.29 405.46 373.741 396.517 365.127 403.121
C 363.969 404.009 362.968 405.058 362.209 406.308
C 361.31 407.788 360.68 409.368 360.412 411.083 Z"
opacity="1" fill="rgb(5,5,4)" fill-rule="evenodd" />
<path d="
M 415.755 341.456
C 415.008 341.064 413.356 341.3 412.506 341.32
C 409.768 341.382 407.036 341.335 404.3 341.458
C 404.874 338.654 404.325 335.381 404.318 332.498
C 404.302 325.778 404.152 319.027 404.265 312.313
C 407.006 312.463 409.767 312.435 412.511 312.371
C 413.483 312.349 415.026 312.014 415.897 312.421
C 415.816 318.777 415.853 325.136 415.796 331.494
C 415.768 334.717 415.294 338.272 415.755 341.456 Z"
opacity="1" fill="rgb(125,125,125)" fill-rule="evenodd" />
<path d="
M 404.3 341.458
C 407.036 341.335 409.768 341.382 412.506 341.32
C 413.356 341.3 415.008 341.064 415.755 341.456
C 416.105 350.905 415.984 360.511 415.837 369.969
C 422.745 369.168 430.053 369.794 437.006 369.784
C 438.671 369.781 440.338 369.79 442.003 369.773
C 442.669 369.767 443.812 369.591 444.358 369.966
C 444.296 373.241 444.22 376.576 444.354 379.846
C 434.795 379.247 425.075 379.79 415.497 379.764
C 412.829 379.757 410.162 379.751 407.494 379.741
C 406.512 379.737 405.093 380.09 404.205 379.694
C 404.392 370.8 404.254 361.902 404.261 353.007
C 404.264 349.188 404.005 345.262 404.3 341.458 Z"
opacity="1" fill="rgb(7,8,8)" fill-rule="evenodd" />
<path d="
M 405.948 398.337
C 409.678 397.448 411.234 400.648 413.354 403.157
C 416.817 407.256 420.255 411.45 423.546 415.689
C 424.589 417.032 425.735 418.335 426.709 419.728
C 427.031 420.188 427.35 421.036 427.903 421.258
C 428.211 419.102 427.902 416.702 427.934 414.5
C 428.011 409.113 427.977 403.733 427.951 398.353
C 428.394 397.772 430.957 398.189 431.743 398.132
C 432.295 407.943 431.647 418.003 431.584 427.825
C 430.86 428.366 429.37 428.198 428.534 427.947
C 423.586 422.198 419.292 415.894 414.268 410.2
C 413.035 408.803 411.753 407.341 410.758 405.766
C 410.616 405.541 409.79 404.318 409.783 404.318
C 409.489 404.342 409.627 404.893 409.62 405.189
C 409.581 406.76 409.717 408.397 409.705 409.988
C 409.66 415.997 409.713 422.008 409.735 428.016
C 409.565 428.269 406.332 428.012 405.958 427.995
C 406.032 418.12 406.065 408.212 405.948 398.337 Z"
opacity="1" fill="rgb(5,5,6)" fill-rule="evenodd" />
<path d="
M 451.141 411.675
C 459.686 411.167 468.438 411.768 477.007 411.772
C 495.326 411.781 513.645 411.816 531.963 411.899
C 540.141 411.936 548.316 412.134 556.493 412.26
C 560.024 412.315 565.017 411.719 568.324 413.024
C 568.5 413.424 568.715 413.72 568.68 414.163
C 558.417 415.306 547.818 414.777 537.504 414.741
C 522.013 414.688 506.52 414.718 491.028 414.845
C 481.844 414.921 472.66 415.058 463.476 415.138
C 460.649 415.163 457.823 415.181 454.996 415.212
C 453.856 415.224 452.435 415.492 451.335 415.212
C 451.297 414.034 451.278 412.845 451.141 411.675 Z"
opacity="1" fill="rgb(116,116,116)" fill-rule="evenodd" />
<path d="
M 463.301 341.272
C 467.758 340.983 472.095 341.579 476.51 342.015
C 478.026 342.624 480.044 342.468 481.66 342.727
C 485.791 343.387 489.841 344.059 494.005 344.496
C 495.476 344.65 499.342 344.407 500.358 345.505
C 500.404 347.075 500.55 348.59 500.718 350.141
C 492.132 350.038 483.452 349.906 474.847 350.214
C 474.918 355.049 474.757 359.898 474.753 364.735
C 474.752 365.972 474.26 368.941 474.965 369.913
C 485.384 368.62 496.142 370.619 506.591 369.756
C 506.852 372.293 506.567 374.942 506.672 377.499
C 506.687 377.88 506.947 379.841 506.556 379.907
C 492.203 379.234 477.474 379.268 463.114 379.835
C 462.367 372.934 462.959 365.524 462.942 358.567
C 462.929 352.994 462.281 346.765 463.301 341.272 Z"
opacity="1" fill="rgb(6,7,6)" fill-rule="evenodd" />
<path d="
M 477.466 340.5
C 477.218 341.159 477.247 341.942 476.51 342.015
C 472.095 341.579 467.758 340.983 463.301 341.272
C 462.585 338.799 463.233 335.096 463.249 332.505
C 463.291 325.774 463.668 318.901 463.159 312.187
C 473.594 312.499 484.066 312.234 494.509 312.298
C 498.438 312.322 502.618 311.905 506.516 312.306
C 506.175 315.441 507.196 319.158 506.405 322.191
C 496.057 322.525 485.645 322.057 475.29 322.128
C 475.334 328.176 474.992 334.254 475.09 340.291
C 475.899 340.394 476.645 340.504 477.466 340.5 Z"
opacity="1" fill="rgb(56,56,57)" fill-rule="evenodd" />
<path d="
M 476.51 342.015
C 477.247 341.942 477.218 341.159 477.466 340.5
C 485.076 339.815 492.955 341.239 500.615 340.84
C 501.096 341.647 500.327 344.447 500.358 345.505
C 499.342 344.407 495.476 344.65 494.005 344.496
C 489.841 344.059 485.791 343.387 481.66 342.727
C 480.044 342.468 478.026 342.624 476.51 342.015 Z"
opacity="0.996" fill="rgb(94,97,100)" fill-rule="evenodd" />
<path d="
M 521.421 371.506
C 523.008 369.206 524.994 366.536 527.39 365.039
C 529.301 365.343 531.06 366.817 532.689 367.799
C 534.99 369.187 537.57 370.069 540.189 370.626
C 543.316 371.291 547.172 371.249 550.079 369.787
C 554.981 367.323 557.517 361.148 553.928 356.427
C 551.665 353.45 547.618 352.177 544.22 351.029
C 536.639 348.468 527.495 346.264 524.729 337.76
C 524.064 335.715 523.725 333.606 523.739 331.453
C 523.755 328.913 524.174 326.448 525.006 324.046
C 529.163 312.054 543.844 309.528 554.746 312.486
C 557.828 313.322 560.782 314.605 563.442 316.387
C 564.145 316.858 565.709 317.71 565.858 318.538
C 565.053 320.539 563.422 322.686 562.076 324.371
C 561.545 325.037 560.935 325.836 560.032 325.924
C 557.78 326.143 555.46 323.781 553.493 322.932
C 547.779 320.467 536.3 320.025 535.176 328.3
C 534.036 336.693 543.63 338.847 549.746 340.976
C 554.01 342.461 558.652 344.168 562.047 347.252
C 567.098 351.841 567.673 359.72 565.908 365.925
C 565.399 367.712 564.557 369.455 563.601 371.043
C 554.781 385.701 531.84 381.999 521.079 372.084
C 521.193 371.891 521.307 371.698 521.421 371.506 Z"
opacity="1" fill="rgb(6,6,6)" fill-rule="evenodd" />

</svg>